<?xml version="1.0" encoding="UTF-8" standalone="no"?>
<svg
   xmlns:dc="http://purl.org/dc/elements/1.1/"
   xmlns:cc="http://creativecommons.org/ns#"
   xmlns:rdf="http://www.w3.org/1999/02/22-rdf-syntax-ns#"
   xmlns:svg="http://www.w3.org/2000/svg"
   xmlns="http://www.w3.org/2000/svg"
   xmlns:sodipodi="http://sodipodi.sourceforge.net/DTD/sodipodi-0.dtd"
   xmlns:inkscape="http://www.inkscape.org/namespaces/inkscape"
   version="1.0"
   width="2369.496472pt"
   height="1660.819720pt"
   viewBox="0 0 2369.496472 1660.819720"
   preserveAspectRatio="xMidYMid meet"
   id="svg3039"
   inkscape:version="0.48.3.1 r9886"
   sodipodi:docname="logo3.svg">
  <defs
     id="defs3053">
    <linearGradient
       id="linearGradient6305">
      <stop
         style="stop-color:#858585;stop-opacity:1;"
         offset="0"
         id="stop6307" />
      <stop
         style="stop-color:#000000;stop-opacity:1;"
         offset="1"
         id="stop6309" />
    </linearGradient>
    <linearGradient
       id="linearGradient6278">
      <stop
         style="stop-color:#03b6c5;stop-opacity:1;"
         offset="0"
         id="stop6280" />
      <stop
         style="stop-color:#43ddea;stop-opacity:1;"
         offset="1"
         id="stop6282" />
    </linearGradient>
    <filter
       inkscape:collect="always"
       id="filter6471">
      <feGaussianBlur
         inkscape:collect="always"
         stdDeviation="4.3179221"
         id="feGaussianBlur6473" />
    </filter>
    <filter
       inkscape:collect="always"
       id="filter6475">
      <feGaussianBlur
         inkscape:collect="always"
         stdDeviation="0.55782807"
         id="feGaussianBlur6477" />
    </filter>
    <filter
       inkscape:collect="always"
       id="filter6479"
       x="-0.015854191"
       width="1.0317084"
       y="-0.12090622"
       height="1.2418124">
      <feGaussianBlur
         inkscape:collect="always"
         stdDeviation="4.3179221"
         id="feGaussianBlur6481" />
    </filter>
  </defs>
  <sodipodi:namedview
     pagecolor="#ffffff"
     bordercolor="#666666"
     borderopacity="1"
     objecttolerance="10"
     gridtolerance="10"
     guidetolerance="10"
     inkscape:pageopacity="0"
     inkscape:pageshadow="2"
     inkscape:window-width="1855"
     inkscape:window-height="1056"
     id="namedview3051"
     showgrid="false"
     inkscape:zoom="0.32"
     inkscape:cx="1054.4099"
     inkscape:cy="1372.8334"
     inkscape:window-x="65"
     inkscape:window-y="24"
     inkscape:window-maximized="1"
     inkscape:current-layer="g3043" />
  <metadata
     id="metadata3041">
Created by potrace 1.10, written by Peter Selinger 2001-2011
<rdf:RDF>
  <cc:Work
     rdf:about="">
    <dc:format>image/svg+xml</dc:format>
    <dc:type
       rdf:resource="http://purl.org/dc/dcmitype/StillImage" />
    <dc:title></dc:title>
  </cc:Work>
</rdf:RDF>
</metadata>
  <g
     transform="matrix(0.1,0,0,-0.1,640.7107,1898.3299)"
     id="g3043"
     style="fill:#000000;stroke:none">
    <path
       style="fill:#0091ea;fill-opacity:1;fill-rule:nonzero;stroke:#000000;stroke-width:160;stroke-miterlimit:4;stroke-opacity:1;stroke-dasharray:none"
       d="m 12778.124,12044.316 c 0,-3709.6529 -5736.0172,-9521.3427 -6716.9202,-9521.3427 -980.906,0 -6716.92227,5811.6898 -6716.92227,9521.3427 0,3709.653 3007.26807,6716.922 6716.92227,6716.922 3709.652,0 6716.9202,-3007.269 6716.9202,-6716.922 z"
       id="path3900"
       inkscape:connector-curvature="0"
       sodipodi:nodetypes="sssss"
       inkscape:export-filename="/home/josalmi/Git/lokki-android/path3893.png"
       inkscape:export-xdpi="90"
       inkscape:export-ydpi="90" />
    <path
       sodipodi:type="arc"
       style="fill:#01579b;fill-opacity:1;fill-rule:nonzero;stroke:#000000;stroke-width:10;stroke-miterlimit:4;stroke-opacity:1;stroke-dasharray:none"
       id="path6485"
       sodipodi:cx="2006.25"
       sodipodi:cy="1057.2747"
       sodipodi:rx="668.75"
       sodipodi:ry="668.75"
       d="m 2675,1057.2747 a 668.75,668.75 0 1 1 -1337.5,0 668.75,668.75 0 1 1 1337.5,0 z"
       transform="matrix(8,0,0,-8,-9988.7972,20483.299)"
       inkscape:export-filename="/home/josalmi/Git/lokki-android/path3893.png"
       inkscape:export-xdpi="90"
       inkscape:export-ydpi="90" />
    <path
       style="fill:#fafafa;fill-opacity:1;fill-rule:nonzero;stroke:#fafafa;stroke-width:9.99999996000000024;stroke-miterlimit:4;stroke-opacity:1;stroke-dasharray:none"
       d="m 2167.5644,1259.4443 c -4.2384,-3.7214 -9.7952,-6.92 -12.3485,-7.1081 -2.5532,-0.1881 -5.6836,-2.1048 -6.9564,-4.2593 -8.0275,-13.5884 -11.8623,-17.8257 -16.7532,-18.5117 -7.8026,-1.0943 -10.4952,-3.9283 -18.044,-18.991 -8.226,-16.4142 -7.1324,-15.3273 -12.521,-12.4435 -5.1997,2.7828 -10.6008,-1.8063 -18.4046,-15.6374 -3.004,-5.3243 -7.4545,-9.203 -13.1077,-11.4236 -5.3087,-2.0853 -10.0277,-6.0299 -12.4254,-10.3864 -6.929,-12.5892 -11.5925,-17.3411 -17.7117,-18.0477 -4.6069,-0.532 -8.4223,-4.2056 -16.3026,-15.6964 -5.6584,-8.251 -14.6138,-19.8122 -19.9009,-25.6915 -5.2872,-5.8793 -11.6287,-14.044 -14.0924,-18.1438 -3.5476,-5.9035 -5.69,-7.3117 -10.299,-6.7694 -4.7541,0.5594 -7.0701,-1.133 -12.6509,-9.2445 -3.7573,-5.461 -9.7422,-12.0017 -13.2997,-14.5349 -3.5575,-2.5332 -8.5445,-7.9653 -11.0822,-12.0714 -11.7432,-19.0009 -80.9532,-47.74026 -151.6646,-62.97848 -35.5361,-7.65799 -68.1572,-15.41243 -82.7263,-19.6651 -16.3702,-4.77836 -38.702,-9.24858 -46.203,-9.24858 -2.8062,0 -10.7013,3.39259 -17.5447,7.5391 -15.6288,9.46978 -66.2786,34.44536 -69.8542,34.44536 -1.4685,0 -9.039,4.12047 -16.8233,9.15657 -7.7843,5.03613 -19.4217,12.01053 -25.8608,15.49873 -17.8959,9.6943 -58.4629,44.6521 -85.5089,73.6853 -26.1756,28.0989 -34.454,33.5817 -44.6517,29.5728 -3.4003,-1.3367 -13.1936,-3.2484 -21.7628,-4.2482 -16.8872,-1.9704 -41.1237,-12.7092 -50.2781,-22.2774 -2.7707,-2.896 -14.1939,-13.6042 -25.3847,-23.796 -14.0216,-12.7697 -20.347,-20.0608 -20.347,-23.453 0,-6.7399 8.7155,-14.8877 26.1829,-24.4773 8.0832,-4.4376 28.0422,-17.0042 44.3535,-27.92568 16.3112,-10.92144 37.6901,-24.84115 47.5087,-30.9327 20.5123,-12.72604 31.998,-22.97284 41.5791,-37.09438 3.7106,-5.46903 8.7088,-11.52858 11.107,-13.46567 3.6945,-2.984 3.9568,-4.27643 1.7172,-8.46105 -1.4538,-2.71648 -5.6406,-5.98391 -9.304,-7.26097 -5.316,-1.85319 -6.4651,-3.34508 -5.6918,-7.39021 0.6841,-3.57838 -0.2307,-5.38199 -3.1118,-6.13541 -2.2443,-0.58692 -4.0806,-3.04255 -4.0806,-5.45699 0,-2.41444 -1.5536,-4.98605 -3.4525,-5.7147 -2.7226,-1.04478 -3.1495,-3.34444 -2.0196,-10.87948 l 1.4328,-9.55465 -18.4202,-16.38258 c -21.7209,-19.31816 -69.0069,-64.89766 -83.4177,-80.4073 -5.5729,-5.99784 -13.9941,-14.94716 -18.7138,-19.88738 -4.7196,-4.94024 -11.1599,-12.46254 -14.3116,-16.71622 -3.1517,-4.25369 -9.7679,-12.70583 -14.7026,-18.78253 -4.9347,-6.0767 -10.3876,-13.86005 -12.1174,-17.29634 -1.7299,-3.43628 -4.9247,-7.20015 -7.0997,-8.36415 -2.1749,-1.164 -3.9544,-3.55 -3.9544,-5.30224 0,-1.75223 -2.486,-4.81471 -5.5243,-6.80551 -3.0384,-1.99081 -5.5243,-4.8386 -5.5243,-6.32842 0,-2.83201 -16.9039,-21.08974 -19.5259,-21.08974 -0.8294,0 -2.7501,-1.98874 -4.2681,-4.41942 -1.5179,-2.43068 -3.8042,-4.41942 -5.0805,-4.41942 -1.2763,0 -5.9911,-2.93709 -10.4774,-6.52686 -9.705,-7.76572 -29.6301,-16.87256 -41.5711,-19.00031 -4.7136,-0.83991 -11.5533,-3.31632 -15.1993,-5.50313 -3.646,-2.18681 -14.3391,-5.42731 -23.7623,-7.20112 -9.4233,-1.77381 -18.7756,-4.58685 -20.7831,-6.25121 -2.8211,-2.33905 -13.9836,-3.04533 -49.1646,-3.11078 -25.0332,-0.0466 -46.6973,-0.81548 -48.1426,-1.7087 -1.4452,-0.89321 -9.3972,-1.77386 -17.67104,-1.957 -10.83524,-0.23983 -17.99646,-1.7898 -25.60028,-5.54089 -8.35719,-4.12276 -12.73133,-4.94262 -20.99223,-3.93468 -11.05346,1.34867 -52.53594,-4.11445 -46.8955,-6.17599 3.02885,-1.10703 30.16326,-5.16703 157.99415,-23.63996 24.3068,-3.51259 57.121,-7.93378 72.9204,-9.82485 106.7778,-12.78053 149.4608,-17.11828 175.4464,-17.83016 19.3413,-0.52985 30.1571,-1.70342 31.1964,-3.38497 1.2057,-1.95097 12.2241,-1.987 45.5245,-0.14888 64.1306,3.53988 106.3245,13.53795 117.5937,27.8645 2.5257,3.21093 5.0943,12.48731 6.7655,24.43417 5.2026,37.1894 14.1407,63.01159 30.1439,87.08526 12.5872,18.93489 17.7484,24.22563 48.8392,50.06543 59.1909,49.194 67.9731,53.19582 132.2729,60.27334 29.1493,3.20848 40.4537,3.04244 62.9767,-0.92496 23.8268,-4.19705 34.256,-4.17381 46.8116,0.1043 12.6964,4.32608 37.9909,25.04037 43.3624,35.51057 3.0608,5.96615 7.9451,10.00085 19.3832,16.01162 11.1397,5.85391 15.2914,9.23552 15.2914,12.45504 0,3.72822 -1.703,4.52725 -10.8888,5.10896 -5.9888,0.37923 -20.6955,-0.86373 -32.6817,-2.76214 -31.3631,-4.96742 -32.5271,-4.80481 -48.4418,6.76717 -7.7296,5.62037 -14.7973,10.88825 -15.706,11.70642 -0.9087,0.81818 6.7804,0.62293 17.087,-0.43384 14.3627,-1.47268 24.0379,-1.06673 41.427,1.73823 12.4783,2.01282 37.1061,4.49483 54.7285,5.51558 52.2077,3.02408 117.5683,8.85521 127.0583,11.3355 4.8613,1.27056 13.9194,6.20919 20.1291,10.97476 12.197,9.36057 35.4499,39.20225 47.1693,60.53479 4.0059,7.29204 10.5059,17.73292 14.4444,23.20195 18.4852,25.66906 37.3184,68.60998 44.1223,100.60158 2.0608,9.6898 5.1922,21.4447 6.9586,26.1219 14.2434,37.7137 22.9779,89.321 22.9181,135.4106 -0.051,39.231 -3.1141,54.8218 -10.8498,55.222 -2.8088,0.1454 -8.5279,-2.7633 -12.7875,-6.5033 l 0,0 z M 1835.0393,786.84086 c 4.6347,-4.63466 3.2359,-14.94183 -2.3202,-17.09674 -9.7415,-3.77818 -19.1857,8.62602 -12.6049,16.55545 3.2177,3.87705 11.2963,4.17005 14.9251,0.54129 z"
       id="path6361"
       inkscape:connector-curvature="0"
       inkscape:export-filename="/home/josalmi/Git/lokki-android/pikku4.png"
       inkscape:export-xdpi="90"
       inkscape:export-ydpi="90"
       transform="matrix(8,0,0,-8,-6407.107,18983.299)" />
    <path
       d="m 4257.5328,15093.798 c -14.2616,-2.766 -32.6837,-9.403 -41.5971,-14.933 -16.6391,-9.957 -51.6996,-13.275 -247.2073,-23.231 -175.3033,-8.849 -405.8716,-29.866 -641.7882,-58.074 -61.8018,-7.742 -149.1563,-17.699 -193.1307,-22.675 -43.9744,-4.978 -117.6612,-13.828 -163.4182,-19.359 -45.7573,-5.531 -117.6612,-14.381 -160.4471,-19.358 -215.1179,-24.336 -311.9804,-35.951 -415.9738,-49.778 -121.821,-16.04 -233.5396,-31.526 -285.2392,-38.716 -90.92,-13.274 -175.8975,-24.889 -234.7281,-33.186 -30.901,-4.424 -211.5524,-32.077 -401.1176,-60.839 -397.5521,-60.839 -426.0759,-65.264 -549.67967,-80.75 -50.511,-6.084 -123.0094,-16.04 -160.4469,-22.123 -37.4378,-5.531 -96.2683,-13.828 -130.7348,-18.253 -34.4663,-4.424 -94.4854,-14.379 -133.1115,-22.123 -77.2523,-15.487 -107.559,-29.867 -128.9518,-61.946 -10.6966,-16.592 -11.2908,-19.911 -2.9714,-33.738 4.754,-8.295 15.4505,-21.571 24.3642,-29.313 8.3194,-7.191 20.2044,-23.783 26.7412,-37.058 17.8274,-38.162 43.9744,-49.778 121.8209,-53.65 38.0319,-1.658 74.8752,-6.636 87.9488,-11.613 25.5527,-9.956 71.904,-10.509 128.9518,-2.213 38.032,5.53 42.1917,4.978 69.527,-7.743 42.786,-19.911 94.4856,-27.101 185.40547,-25.442 l 81.412,1.659 25.5528,-25.994 c 21.3928,-21.571 30.3066,-26.548 58.8305,-31.527 18.4218,-3.318 46.9456,-8.849 62.3961,-12.168 17.8274,-3.317 57.0479,-4.424 103.9934,-1.658 74.281,3.871 75.4696,3.317 98.0511,-10.51 45.1627,-28.76 54.0765,-30.972 118.2553,-30.972 34.4664,0.552 77.8466,4.424 99.8337,8.849 29.7125,6.638 95.0798,9.955 279.2967,13.827 132.5174,2.212 251.367,6.084 264.4405,7.744 13.6678,1.658 50.5111,-1.107 87.9487,-7.744 52.8882,-8.849 70.1214,-14.38 95.0799,-30.42 30.3066,-18.805 67.15,-28.76 146.7793,-38.716 14.8561,-2.212 57.642,-8.85 94.4854,-15.487 60.6133,-10.508 72.4983,-14.379 106.9647,-36.502 45.7571,-29.315 66.5559,-36.504 153.3161,-53.651 36.249,-7.189 81.412,-20.464 101.0222,-29.313 19.0159,-8.849 43.9743,-19.358 55.2651,-23.229 36.8434,-13.275 114.6899,-61.393 152.1275,-93.472 19.6102,-17.145 50.5112,-41.482 68.3386,-54.755 96.8624,-70.243 152.1276,-123.892 180.6515,-174.776 10.1022,-17.698 31.4951,-45.906 48.1341,-63.051 16.639,-17.699 38.6261,-45.907 49.3226,-63.053 10.6965,-17.698 33.2778,-45.353 50.5111,-61.946 17.2332,-17.144 40.4088,-46.458 51.1054,-65.263 11.2907,-19.358 29.7124,-45.906 42.1915,-59.733 11.885,-13.828 32.0894,-40.377 43.9744,-59.734 11.8851,-19.357 33.8723,-47.565 48.7284,-63.052 14.8562,-15.486 36.2492,-42.034 48.1341,-59.18 27.3354,-40.375 106.3705,-132.187 152.7219,-177.541 20.2043,-19.911 49.9166,-51.99 65.9611,-71.901 42.1917,-52.543 142.0257,-156.523 199.0735,-207.408 82.0066,-73.006 185.4058,-174.221 219.2779,-215.15 17.2329,-20.465 47.5398,-49.777 66.5549,-64.711 19.0168,-14.933 47.5407,-42.588 62.9914,-61.392 16.0446,-19.358 51.6988,-51.99 80.2227,-73.561 27.9301,-21.017 63.5852,-51.991 79.036,-68.583 15.4507,-16.039 46.3506,-42.588 68.3379,-59.18 22.582,-16.593 47.5399,-38.716 55.8594,-48.671 14.8562,-18.253 16.0446,-23.23 16.6392,-84.623 1.1884,-60.839 2.376,-68.03 19.6105,-101.214 13.0724,-24.89 19.6105,-47.012 21.9865,-73.007 1.783,-23.231 7.132,-42.589 14.2624,-52.544 5.942,-8.297 14.8561,-22.676 19.6097,-30.973 14.857,-27.101 47.5398,-58.627 77.8459,-74.113 20.7992,-11.063 29.1182,-18.806 29.1182,-27.655 0,-11.061 -16.044,-37.057 -84.9768,-138.824 -30.9007,-45.354 -86.1655,-91.813 -170.5488,-143.25 -169.9558,-103.98 -285.2398,-177.54 -323.8654,-206.302 -22.582,-17.698 -57.6424,-40.928 -77.2522,-52.543 -19.6105,-11.615 -70.1217,-44.799 -112.9072,-73.56 -101.0224,-68.583 -300.0959,-193.027 -341.6931,-213.491 -96.8625,-47.013 -174.709,-113.937 -209.7696,-180.306 -15.4504,-28.76 -19.6102,-44.248 -21.3929,-78.539 -1.7827,-36.504 0.5941,-47.012 13.6677,-74.667 20.2043,-40.375 51.1053,-77.984 118.8497,-146.567 29.7123,-29.315 64.7731,-66.37 77.8464,-82.41 13.0735,-16.04 41.0031,-39.823 62.3959,-53.096 57.0478,-35.398 111.7188,-81.304 147.3739,-122.786 38.0318,-44.246 55.8594,-57.521 100.4278,-75.773 19.0159,-7.743 42.7863,-19.911 52.2942,-26.548 10.1018,-7.19 45.7569,-25.442 80.2235,-40.375 99.2395,-44.7999 178.8684,-63.6049 255.5268,-61.3929 39.814,1.107 49.322,-0.553 89.1368,-17.145 24.9588,-10.509 62.9906,-21.571 86.7609,-24.336 38.0311,-4.978 47.5391,-4.425 91.5129,7.19 79.6297,21.017 111.7196,45.353 252.5568,191.3679 26.146,27.101 64.772,70.242 86.165,95.684 74.876,90.153 217.496,233.403 267.412,267.693 17.828,12.722 52.888,40.376 77.846,61.947 24.364,21.017 60.615,51.436 79.63,66.369 19.016,15.486 59.425,49.225 88.543,75.221 39.221,33.737 65.961,52.543 95.674,65.264 37.438,16.592 125.982,69.688 252.555,152.099 27.336,17.698 80.224,42.587 133.707,63.604 156.881,61.393 361.896,164.821 556.216,280.415 77.846,46.459 84.383,47.565 158.664,30.42 25.553,-6.084 73.687,-14.933 108.153,-19.358 34.467,-4.977 79.035,-14.381 98.051,-22.124 19.61,-7.19 49.917,-16.039 67.745,-19.91 17.828,-3.871 48.134,-12.722 67.744,-19.912 19.61,-7.19 70.715,-20.463 113.501,-29.866 42.787,-9.403 89.732,-20.465 104.588,-24.889 14.856,-4.425 49.917,-11.615 78.441,-16.04 28.524,-4.424 77.252,-16.039 108.153,-24.889 31.495,-9.402 76.063,-19.91 99.833,-23.23 23.771,-3.317 64.774,-11.614 90.921,-18.805 26.147,-7.19 70.121,-17.144 98.051,-22.123 27.929,-5.53 65.368,-14.38 83.195,-20.464 17.827,-6.084 57.642,-16.592 89.137,-23.782 30.901,-6.638 77.846,-20.465 103.993,-30.42 26.146,-9.402 71.904,-23.23 101.022,-30.421 29.713,-7.189 83.195,-25.441 118.85,-40.375 36.248,-14.933 76.063,-30.419 89.137,-34.29 13.073,-3.32 54.671,-21.019 92.108,-38.717 37.438,-17.699 79.63,-34.844 93.893,-38.163 25.551,-6.637 96.267,-46.459 186.594,-105.086 33.276,-21.571 58.829,-43.693 70.715,-60.287 49.322,-67.476 82.006,-104.533 116.473,-131.081 40.408,-30.973 57.641,-50.331 114.095,-128.869 42.786,-58.628 71.31,-80.751 110.53,-85.729 38.032,-4.978 47.54,-11.062 66.555,-41.482 15.451,-24.888 35.656,-49.224 130.735,-155.417 23.176,-25.994 64.179,-80.7499 90.92,-120.5719 87.949,-133.294 160.447,-212.385 203.233,-220.129 45.163,-8.296 52.295,-13.827 77.253,-60.286 39.219,-73.007 83.1951,-114.489 168.1721,-158.183 39.221,-19.911 51.105,-30.973 69.527,-63.605 17.828,-32.632 57.049,-85.728 78.44,-107.298 24.958,-24.889 98.052,-72.455 111.126,-72.455 16.638,0 38.625,-22.123 62.395,-63.605 33.279,-58.627 51.7,-81.302 95.08,-118.359 28.524,-24.336 48.728,-36.504 71.903,-43.141 35.062,-9.955 43.381,-18.252 69.528,-66.923 19.016,-34.845 49.917,-67.477 89.731,-95.131 37.438,-25.995 64.18,-38.716 80.224,-38.716 7.131,0 27.336,-12.721 46.352,-29.314 42.191,-37.057 67.149,-50.884 108.747,-60.839 17.827,-4.425 44.568,-13.827 60.019,-21.018 25.552,-11.062 30.306,-11.615 53.482,-5.531 65.368,18.252 98.646,93.472 129.546,290.924 2.973,18.252 8.914,54.202 13.074,80.198 13.073,77.984 8.914,354.527 -6.536,486.714 -7.132,59.181 -15.451,131.635 -19.017,160.396 -13.074,121.125 -58.831,340.7009 -97.456,467.3569 -4.755,15.487 -17.233,56.415 -27.336,91.26 -10.102,34.844 -29.713,96.237 -43.974,135.506 -13.667,39.821 -29.713,97.897 -35.656,129.975 -13.667,80.75 -45.756,201.877 -71.309,271.013 -11.885,32.078 -32.09,87.387 -44.568,122.784 -58.237,160.397 -149.156,334.618 -246.019,471.783 -84.383,119.468 -102.806,149.335 -159.853,257.186 -35.06,65.817 -66.556,116.148 -99.24,157.629 -26.147,33.739 -64.179,83.516 -84.382,110.618 -52.889,72.454 -98.646,122.785 -157.477,174.222 -164.0121,142.696 -221.0611,159.289 -661.3981,188.049 -43.975,2.766 -103.994,7.743 -133.706,11.061 -29.118,3.319 -84.384,8.297 -121.82,11.063 -67.152,4.977 -130.141,11.062 -245.425,22.676 -34.467,3.871 -59.426,8.849 -61.209,12.721 -1.782,3.872 1.19,21.571 6.538,39.27 13.667,50.33 11.884,81.304 -8.914,121.679 -26.741,52.543 -75.469,87.94 -199.073,145.462 -45.162,21.016 -66.556,39.821 -86.166,74.112 -35.061,61.393 -62.396,94.024 -134.894,159.842 -127.764,116.149 -226.409,173.117 -342.882,197.452 -66.556,13.827 -222.248,12.168 -297.718,-2.765 -32.684,-6.637 -109.937,-19.911 -172.332,-29.314 -130.735,-20.464 -159.854,-19.911 -294.153,2.213 -47.54,8.296 -124.793,17.146 -172.332,19.911 -175.304,9.955 -273.949,30.419 -384.478,80.197 -102.805,45.906 -259.093,150.992 -402.901,270.46 -45.757,38.162 -105.777,87.387 -133.706,109.51 -73.092,58.075 -209.77,183.073 -250.178,229.532 -39.222,44.246 -104.589,137.718 -140.243,200.77 -76.064,133.293 -147.968,378.31 -177.086,600.098 -20.204,155.417 -39.221,202.43 -106.37,265.482 -35.654,33.738 -54.077,45.353 -120.633,76.879 -85.571,39.823 -164.606,63.051 -302.472,87.941 -42.192,7.743 -112.907,20.464 -156.8815,28.76 -159.854,28.76 -241.8597,36.504 -460.543,42.034 -114.0956,3.319 -229.3796,6.637 -255.5267,7.744 -26.1471,1.106 -59.4246,-0.554 -73.6869,-2.765 z m 139.0543,-44.248 c 2.3768,-3.319 63.5844,-5.531 163.4184,-5.531 89.1377,0 161.0409,-2.212 162.8247,-4.977 1.7822,-2.765 24.9579,-3.872 51.1042,-2.212 27.9301,2.212 50.512,1.105 54.6718,-2.213 4.1598,-3.319 33.8713,-7.743 66.555,-9.402 32.0891,-2.213 62.9906,-6.084 68.3387,-8.85 8.3196,-4.424 66.5558,-14.38 107.5597,-18.805 8.319,-0.553 19.0153,-2.766 23.7693,-4.977 4.754,-1.66 18.422,-4.426 29.712,-6.085 52.294,-7.189 104.588,-17.698 111.719,-21.57 4.16,-2.766 11.29,-3.318 15.451,-2.213 7.725,2.767 40.408,-5.53 54.076,-13.273 3.565,-2.213 20.204,-5.532 36.843,-7.744 17.234,-2.212 33.278,-6.083 35.061,-8.849 1.783,-2.765 5.943,-3.872 8.913,-1.659 3.566,1.659 42.787,-13.827 86.761,-34.291 56.454,-26.549 91.514,-47.566 116.473,-68.583 34.466,-29.867 71.31,-80.751 73.687,-102.321 0.593,-6.084 3.566,-21.017 7.131,-33.185 3.565,-12.168 6.536,-33.738 6.536,-48.119 0,-14.379 2.972,-27.654 6.537,-29.867 4.16,-2.212 5.348,-13.826 4.16,-30.42 -1.783,-14.379 -0.595,-28.759 2.376,-31.525 3.567,-3.318 7.132,-17.699 8.32,-32.079 2.972,-40.928 7.725,-68.583 14.857,-96.237 3.565,-13.828 6.536,-30.973 7.13,-38.716 0.595,-7.743 2.971,-16.039 4.754,-19.359 2.972,-4.424 11.292,-35.95 14.262,-55.309 0,-2.765 2.377,-9.401 4.16,-13.826 6.538,-14.933 12.48,-41.482 11.291,-48.671 -0.594,-4.425 1.189,-10.509 4.16,-13.828 2.971,-3.871 7.725,-16.039 9.508,-28.207 2.377,-11.615 6.536,-25.443 9.508,-30.42 2.971,-4.977 11.29,-25.442 17.827,-45.906 7.131,-20.464 14.856,-38.716 17.828,-40.376 2.376,-1.659 6.536,-11.615 8.913,-23.229 4.16,-21.57 66.556,-141.589 74.875,-144.355 2.971,-1.106 5.35,-4.425 5.35,-7.19 0,-3.319 4.752,-12.169 10.695,-20.465 6.537,-8.296 21.988,-30.972 35.655,-50.884 13.668,-19.91 32.089,-45.353 41.003,-56.967 16.045,-20.465 86.166,-96.791 95.674,-103.98 2.378,-2.213 35.06,-30.973 72.498,-64.159 37.438,-33.185 74.876,-64.711 83.195,-69.135 8.319,-4.978 45.757,-35.399 83.195,-67.477 101.022,-86.835 136.677,-116.148 166.39,-137.719 14.856,-11.062 33.278,-25.995 41.597,-33.738 8.32,-7.744 17.232,-14.38 19.61,-14.38 7.13,0 42.192,-23.783 50.511,-34.845 4.755,-5.531 14.262,-12.721 21.394,-15.486 21.392,-9.403 53.482,-29.314 82.005,-50.884 27.336,-20.464 163.419,-86.835 179.464,-86.835 4.753,0 10.696,-2.765 12.479,-6.084 2.377,-3.318 7.725,-4.424 12.479,-2.765 4.16,1.66 9.508,0.553 11.29,-2.212 1.783,-2.765 15.451,-6.637 29.713,-8.849 14.856,-1.66 28.523,-5.531 30.306,-8.297 1.783,-2.765 11.886,-4.978 23.176,-4.978 11.29,0 21.394,-2.212 23.176,-4.978 1.782,-2.765 14.856,-3.318 29.711,-2.212 15.452,1.659 27.336,0.553 29.714,-3.319 2.377,-3.318 18.422,-6.083 35.655,-6.083 17.233,0 33.278,-1.659 35.061,-3.872 2.376,-2.212 32.089,-2.765 65.961,-2.212 39.22,1.105 62.991,-0.553 65.96,-4.425 1.784,-3.318 16.046,-6.083 31.497,-6.083 15.449,-0.554 39.814,-3.32 54.671,-6.085 14.855,-3.318 36.248,-7.19 47.539,-8.297 41.598,-4.424 62.396,-8.849 74.876,-14.379 17.233,-7.743 135.489,2.212 146.779,12.167 2.971,2.212 15.451,2.766 28.524,1.659 12.479,-1.659 26.147,-0.553 30.306,2.765 4.16,2.767 24.959,7.192 46.351,8.85 21.393,2.213 43.976,6.085 50.512,8.297 18.422,7.191 86.166,18.252 120.038,19.358 17.233,0.553 33.278,2.766 35.06,4.977 6.538,5.531 114.096,4.425 117.661,-1.106 1.784,-2.765 14.263,-3.871 27.93,-2.212 13.074,1.659 35.062,0 48.729,-3.872 95.08,-26.547 118.255,-36.504 167.578,-68.582 16.64,-11.062 43.38,-28.208 59.425,-38.716 64.178,-41.481 216.9,-199.112 216.9,-224 0,-17.146 30.901,-61.946 46.353,-66.924 8.912,-3.318 20.203,-7.744 24.958,-11.061 4.753,-2.765 23.769,-12.168 41.597,-21.018 78.441,-39.269 115.878,-58.627 118.85,-61.393 1.783,-1.658 8.318,-6.084 14.856,-9.402 19.61,-9.956 50.511,-56.968 50.511,-77.431 0,-9.956 2.971,-19.913 6.536,-22.124 4.754,-2.213 4.754,-4.978 0,-9.402 -3.565,-3.32 -6.536,-11.616 -6.536,-18.253 0,-7.19 -2.971,-14.379 -6.537,-16.039 -3.566,-2.212 -4.754,-7.191 -2.971,-11.061 1.188,-3.872 -2.378,-11.615 -8.914,-17.147 -5.943,-4.978 -11.291,-13.274 -11.291,-17.699 0,-4.424 -7.725,-17.145 -17.828,-28.759 -9.508,-11.616 -17.826,-22.677 -17.826,-24.89 0,-2.212 15.45,-2.212 35.059,0 24.365,2.765 36.25,1.66 39.221,-2.765 2.972,-3.871 18.423,-6.084 43.975,-4.977 21.392,0.553 43.38,-0.554 48.134,-2.213 10.101,-3.871 89.137,-9.402 130.14,-9.402 14.262,0 29.118,-2.214 32.684,-4.979 3.565,-2.765 29.119,-6.637 57.048,-8.296 93.297,-4.977 133.705,-8.296 187.188,-13.827 29.712,-3.319 75.469,-5.53 102.805,-5.53 27.335,0 52.888,-2.213 56.454,-4.979 4.159,-2.765 49.916,-7.189 102.211,-9.402 52.293,-2.213 98.644,-6.637 102.804,-9.403 3.565,-3.318 14.856,-4.424 24.365,-2.765 8.913,1.659 19.015,1.106 21.987,-1.659 2.971,-2.212 16.044,-5.531 29.117,-7.191 50.512,-6.083 79.035,-14.38 136.084,-40.375 52.2931,-23.782 62.9901,-29.866 62.9901,-35.397 0,-3.319 10.102,-11.615 22.582,-18.805 27.929,-16.592 143.807,-124.444 143.807,-134.4 0,-3.871 5.348,-9.956 11.885,-13.827 6.538,-3.872 11.885,-8.849 11.885,-11.062 0,-2.213 11.885,-20.464 26.741,-40.928 14.856,-19.911 26.741,-37.609 26.741,-39.269 0,-1.66 5.943,-8.849 13.668,-16.041 19.61,-18.803 39.815,-44.8 39.815,-51.437 0,-3.317 2.377,-6.083 5.942,-6.083 4.755,0 27.336,-29.313 57.643,-74.667 7.13,-10.508 23.769,-42.034 74.281,-138.27 12.479,-24.338 32.089,-58.075 43.38,-74.668 11.291,-16.592 24.364,-36.503 28.523,-44.247 11.291,-21.571 39.815,-61.945 58.831,-82.963 8.914,-10.508 16.639,-21.017 16.639,-23.782 0,-3.872 21.988,-35.397 29.713,-42.588 7.131,-6.637 130.14,-232.849 146.184,-268.246 15.45,-35.398 26.148,-62.499 38.627,-99.556 7.131,-21.018 16.639,-46.461 20.799,-56.415 4.753,-9.403 8.319,-19.912 8.319,-23.23 0,-3.319 4.16,-14.933 9.508,-26.549 5.348,-11.613 11.884,-25.995 14.262,-32.079 19.61,-51.989 25.553,-68.029 27.93,-80.196 1.188,-7.744 5.347,-18.806 8.319,-25.443 3.567,-6.084 5.349,-13.273 4.754,-16.592 -0.594,-2.765 0,-8.85 2.378,-13.274 4.753,-11.615 10.695,-44.248 10.101,-59.181 0,-6.637 2.972,-13.826 5.942,-15.486 3.566,-1.659 5.943,-11.615 5.943,-22.123 0,-10.509 2.972,-20.465 5.943,-22.124 3.564,-2.212 4.754,-8.849 2.971,-14.38 -2.377,-6.084 -1.189,-13.828 1.783,-17.699 2.97,-3.872 7.131,-22.676 8.913,-42.588 3.565,-33.185 14.263,-69.135 27.335,-92.918 7.726,-12.721 22.582,-54.756 29.714,-81.304 3.565,-12.168 10.696,-35.95 15.45,-52.543 5.349,-16.593 10.696,-35.398 11.884,-41.482 1.189,-6.084 6.537,-24.888 11.885,-41.481 10.103,-32.079 20.8,-74.667 21.988,-88.494 0,-4.425 2.377,-10.509 4.753,-13.827 2.378,-2.766 6.537,-17.699 8.915,-32.632 1.782,-14.933 6.536,-30.973 8.912,-35.951 2.973,-4.977 8.321,-22.676 11.291,-39.2689 2.973,-16.592 8.32,-41.481 11.886,-55.308 3.566,-13.828 5.942,-35.398 6.537,-48.119 0,-12.721 2.971,-24.889 6.537,-26.548 3.565,-2.212 5.347,-12.168 4.159,-22.124 -0.594,-10.508 0.595,-20.464 2.971,-22.676 2.377,-2.212 4.16,-18.252 4.16,-35.951 0,-17.698 2.972,-33.738 6.537,-35.95 4.754,-2.213 5.348,-14.934 2.971,-38.716 -2.377,-21.571 -1.783,-35.951 2.377,-38.163 2.971,-1.66 5.942,-16.593 5.942,-33.185 0,-16.593 2.972,-31.526 6.537,-33.739 4.755,-2.212 5.348,-14.38 2.972,-36.503 -2.377,-19.358 -1.783,-35.398 1.783,-39.823 6.535,-7.19 10.695,-105.086 10.695,-246.676 0,-134.953 -1.782,-170.35 -9.507,-179.199 -5.348,-5.531 -5.943,-17.699 -3.565,-39.269 2.97,-18.252 1.782,-33.185 -1.783,-37.61 -5.348,-6.084 -10.103,-27.654 -15.451,-70.242 -6.536,-50.331 -27.93,-122.785 -41.003,-137.165 -4.755,-5.531 -4.755,-9.956 0,-17.146 5.348,-8.296 4.16,-12.168 -5.943,-20.464 -7.13,-5.531 -15.45,-9.403 -18.421,-8.85 -2.972,1.106 -10.102,-2.765 -16.639,-8.296 -12.479,-9.956 -11.291,-10.509 -49.322,17.146 -17.828,13.274 -23.771,15.486 -32.09,10.508 -8.319,-4.977 -17.233,-3.318 -41.597,7.19 -16.64,7.744 -30.307,17.146 -30.307,21.571 0,4.424 -4.754,8.296 -11.291,8.296 -10.696,0 -23.176,13.274 -42.787,47.012 -12.478,21.571 -36.842,24.889 -56.452,7.744 l -14.262,-12.168 -6.538,17.145 c -6.535,17.146 -19.609,26.549 -54.67,40.376 -9.509,3.318 -21.393,15.486 -27.929,27.101 -6.538,11.615 -14.263,22.676 -17.828,24.889 -2.971,1.659 -5.942,7.743 -5.942,12.721 0,4.978 -5.349,15.486 -11.886,23.229 -6.536,7.744 -11.884,19.358 -11.884,26.549 0,7.19 -4.16,20.464 -9.509,29.866 -9.508,17.146 -10.696,17.699 -57.048,7.19 -12.479,-3.318 -18.422,-1.106 -29.117,10.509 -7.131,7.743 -17.234,14.38 -21.394,14.38 -4.753,0 -13.668,8.297 -19.61,18.251 -6.536,10.509 -18.421,21.57 -26.74,24.889 -8.321,3.318 -14.857,9.955 -14.857,13.827 0,4.425 -5.349,14.38 -11.885,22.123 -6.537,7.744 -11.885,17.146 -11.885,20.465 0,3.871 -4.754,13.274 -10.695,21.017 -5.943,8.296 -15.451,25.995 -21.394,39.822 -5.943,13.827 -15.452,33.185 -20.204,42.588 l -9.509,17.699 -12.479,-10.509 c -18.422,-16.039 -33.872,-13.827 -62.99,10.509 -14.263,11.615 -32.09,22.676 -39.221,24.889 -8.32,2.212 -13.668,8.296 -13.668,14.38 0,6.084 -6.536,14.933 -14.855,19.911 -8.32,4.978 -23.176,24.889 -33.279,44.247 -10.695,19.911 -21.393,37.057 -24.363,38.716 -2.378,1.659 -4.755,7.743 -4.755,13.274 0,5.531 -3.565,12.721 -7.131,14.933 -4.159,2.213 -12.479,13.274 -17.827,24.336 -8.32,17.699 -12.479,20.464 -36.249,22.677 -27.335,2.765 -58.831,21.017 -109.342,62.498 -27.335,22.124 -58.8301,61.946 -53.4821,67.477 2.971,2.212 -11.885,30.973 -30.901,62.499 -2.972,4.424 -8.32,14.933 -12.48,23.229 -7.131,13.827 -8.913,14.381 -39.22,11.615 -29.712,-2.765 -67.744,4.978 -67.744,14.38 0,3.319 -29.119,38.716 -63.585,77.432 -19.609,21.571 -51.105,68.03 -63.585,92.366 -4.753,9.402 -11.291,19.358 -14.856,21.017 -3.564,2.212 -6.536,7.19 -6.536,11.615 0,11.062 -41.004,65.8169 -53.483,71.3479 -5.942,2.213 -13.668,9.956 -17.233,16.593 -13.667,24.889 -24.958,37.609 -86.76,100.661 -21.393,21.571 -38.626,41.481 -38.626,44.8 0,3.319 -5.348,11.615 -11.885,19.359 -12.48,15.486 -30.306,59.733 -26.741,65.817 5.943,8.296 -17.233,9.956 -33.872,2.212 -12.479,-5.531 -21.394,-6.637 -28.525,-2.765 -5.942,3.318 -20.798,5.53 -32.683,5.53 -19.61,0 -22.581,1.66 -35.061,28.208 -7.725,14.934 -24.958,39.822 -38.626,54.755 -13.073,14.933 -24.363,28.208 -24.363,29.867 0,2.212 -7.726,13.827 -17.828,26.549 -9.508,12.167 -17.828,27.101 -17.828,32.631 0,7.19 -7.13,11.615 -21.987,15.487 -25.552,6.636 -83.195,59.18 -102.211,93.471 -5.942,11.062 -18.421,26.549 -26.741,33.739 -8.32,7.19 -16.638,21.017 -19.016,30.972 -1.782,9.403 -8.319,19.358 -13.668,22.124 -55.265,27.655 -70.715,36.503 -80.223,46.459 -6.537,6.638 -23.77,17.145 -38.627,23.229 -14.261,5.531 -38.032,19.359 -51.699,29.867 -13.668,10.509 -27.93,19.358 -30.9,19.358 -3.566,0 -14.263,6.084 -23.77,13.275 -10.102,8.295 -21.394,12.721 -28.525,11.062 -12.48,-3.319 -43.974,9.401 -100.427,39.821 -41.003,21.571 -68.933,33.186 -76.659,30.973 -3.566,-1.107 -11.291,0.553 -17.827,3.319 -7.131,2.766 -32.683,13.274 -57.048,23.783 -24.364,9.955 -51.7,22.675 -60.613,28.207 -8.319,5.53 -22.582,9.956 -30.307,9.956 -8.32,0 -17.233,2.766 -19.016,5.531 -2.377,3.318 -8.319,5.531 -13.667,4.976 -11.886,-1.658 -41.598,4.98 -54.671,11.063 -5.349,2.766 -18.422,6.638 -29.712,8.85 -11.291,2.212 -28.525,8.296 -38.626,12.721 -24.958,12.72 -54.671,22.123 -82.602,26.548 -13.073,1.66 -27.929,5.531 -33.277,7.743 -4.754,2.213 -21.987,7.19 -38.627,10.509 -16.044,3.871 -40.409,11.061 -53.482,16.591 -13.073,6.085 -41.003,12.169 -61.802,13.829 -20.798,1.659 -41.597,6.084 -45.756,9.401 -4.755,3.319 -11.886,4.979 -16.64,3.319 -4.753,-1.659 -19.61,1.66 -32.684,7.743 -13.072,5.531 -27.335,8.85 -32.089,7.19 -4.754,-1.659 -10.696,-0.552 -13.072,2.766 -1.784,3.319 -12.481,6.085 -23.771,6.085 -11.291,0 -21.393,2.211 -23.77,4.977 -1.783,2.765 -11.885,3.871 -23.176,2.212 -11.291,-1.659 -21.393,-0.552 -23.77,3.319 -2.376,3.318 -11.291,6.084 -20.204,6.084 -8.915,0 -27.93,5.53 -42.786,12.167 -14.856,6.084 -32.089,12.168 -38.626,13.275 -6.537,0.552 -23.77,3.871 -38.626,7.19 -14.856,3.318 -37.438,5.53 -50.511,6.084 -13.074,0 -36.844,6.637 -53.483,13.826 -16.044,7.744 -37.438,13.828 -47.54,13.828 -9.508,0 -28.524,2.765 -41.597,6.084 -13.074,2.766 -29.117,6.638 -35.655,7.744 -6.537,1.105 -22.581,4.976 -35.656,8.296 -13.072,3.318 -30.306,6.637 -38.031,7.742 -7.726,1.106 -16.638,6.085 -19.61,11.062 -2.971,4.977 -8.319,7.743 -11.29,5.531 -2.972,-1.659 -9.508,-0.554 -13.668,2.766 -4.755,3.871 -21.987,7.743 -38.627,9.955 -16.638,1.659 -32.089,5.531 -33.872,7.743 -1.782,2.766 -9.509,4.978 -17.827,4.978 -8.32,0 -20.205,4.978 -27.336,11.062 -8.319,7.19 -21.393,11.061 -35.06,11.061 -12.479,0 -24.364,2.765 -26.741,6.085 -2.378,3.871 -13.668,4.977 -29.118,3.318 -13.668,-2.212 -27.336,-1.106 -30.307,1.107 -2.971,2.765 -16.045,6.083 -29.118,7.743 -13.074,1.659 -39.815,7.19 -59.426,12.168 -19.609,5.531 -45.756,9.955 -57.641,10.507 -11.885,1.106 -25.553,4.426 -30.306,7.744 -6.538,4.978 -14.856,1.106 -39.816,-18.805 -17.233,-13.274 -39.814,-28.207 -49.917,-32.633 -10.102,-4.424 -33.276,-18.25 -51.104,-30.419 -17.827,-12.168 -35.061,-22.123 -38.033,-22.123 -2.971,0 -20.204,-9.403 -38.626,-20.464 -18.421,-11.616 -45.757,-27.101 -60.613,-34.845 -15.45,-7.743 -54.076,-27.101 -86.166,-43.14 -87.948,-44.247 -227.597,-109.511 -257.905,-120.02 -14.855,-5.531 -37.437,-13.828 -50.509,-19.358 -13.075,-5.531 -35.655,-14.38 -50.512,-19.911 -14.262,-6.085 -39.22,-19.911 -54.67,-30.972 -15.451,-11.617 -30.902,-21.019 -34.467,-21.019 -2.971,0 -5.943,-2.212 -5.943,-4.977 0,-3.872 -55.859,-41.482 -74.281,-50.331 -2.971,-1.659 -25.553,-14.933 -49.322,-30.42 -56.454,-35.398 -82.006,-48.672 -111.125,-56.415 -17.233,-4.977 -39.221,-21.57 -83.195,-62.498 -32.683,-30.421 -61.802,-55.31 -64.772,-55.31 -2.972,0 -16.045,-9.955 -29.713,-22.123 -29.118,-26.549 -129.546,-111.17 -140.836,-118.914 -4.755,-3.318 -20.8,-13.273 -36.251,-22.123 -16.043,-9.402 -28.524,-18.252 -28.524,-20.465 0,-2.212 -18.42,-22.122 -41.596,-44.246 -22.582,-22.123 -41.004,-43.141 -41.598,-46.459 0,-3.319 -20.798,-24.889 -45.756,-48.118 -25.554,-22.677 -52.888,-50.884 -61.209,-62.5 -8.319,-11.061 -21.986,-27.1 -30.901,-34.844 -9.508,-7.743 -16.639,-16.592 -16.639,-19.357 0,-7.191 -32.683,-42.035 -81.412,-86.835 -23.77,-22.124 -43.3803,-42.588 -43.3803,-45.906 0,-3.319 -21.987,-26.549 -48.7279,-51.438 -50.5104,-45.9059 -90.3253,-69.1349 -132.5169,-76.3259 -13.0732,-2.212 -27.3355,-6.637 -31.4953,-9.402 -5.3482,-4.425 -11.291,-4.425 -20.799,0 -7.1303,3.319 -24.3633,7.19 -38.6256,8.296 -13.6678,1.66 -46.9461,13.274 -73.0924,25.442 -46.946,22.6769 -72.4993,27.6549 -79.6297,17.146 -4.7536,-6.637 -78.4405,-7.19 -82.6003,-0.553 -1.783,2.7649 -16.0445,6.6369 -31.4953,8.8489 -15.4507,2.213 -36.2489,7.743 -45.163,12.168 -9.508,4.425 -18.4214,6.637 -20.2044,4.978 -1.783,-1.659 -8.9133,0 -16.0445,3.872 -6.5366,3.318 -15.4507,6.637 -19.0159,6.637 -3.5652,0 -15.4508,8.296 -25.5525,18.252 -14.8562,15.485 -21.3936,18.251 -35.0613,15.485 -13.0732,-3.317 -20.7981,0 -39.8141,16.594 -35.6551,29.866 -57.0478,40.928 -80.8181,40.928 -17.2329,0 -24.3641,3.871 -39.8149,21.57 -10.6963,12.168 -19.0159,24.336 -19.0159,27.101 0,9.956 -66.5558,73.008 -77.8459,73.008 -6.5366,0 -11.291,3.871 -11.291,9.955 0,4.979 -12.4793,17.699 -26.7409,28.208 -14.8561,9.956 -26.7417,21.017 -26.7417,23.783 0,3.318 -4.1598,2.765 -9.508,-1.107 -7.7249,-6.084 -9.5079,-5.531 -11.8847,4.425 -2.3768,6.084 -7.1312,9.956 -11.291,8.849 -4.1598,-1.659 -15.4499,3.872 -24.3641,11.615 -9.508,8.296 -21.9869,18.806 -27.9295,23.783 -7.131,5.53 -8.3195,10.509 -4.1597,14.38 13.0735,12.167 5.9425,28.208 -16.639,37.61 -21.987,8.849 -108.1531,84.07 -108.1531,94.578 0,2.765 -11.2907,17.698 -24.9584,33.185 -26.1469,28.207 -42.7859,62.498 -36.2492,72.454 2.377,2.765 2.9713,17.699 2.377,32.632 -0.5942,14.933 1.1885,29.867 4.1597,33.186 2.9713,3.871 7.131,13.273 9.508,21.569 4.1598,17.147 95.6741,109.512 108.1532,109.512 4.754,0 8.3195,2.212 8.3195,5.531 0,2.765 8.9137,9.402 19.6103,13.827 16.6388,7.743 62.9906,32.632 166.3899,90.153 18.4213,9.955 36.2488,22.125 39.814,25.995 4.1598,4.426 10.6964,8.297 15.4508,8.297 4.1597,0 11.2909,4.424 15.4499,10.507 4.1598,5.533 19.0167,15.488 32.6837,22.125 13.6677,6.084 34.4667,19.358 45.7576,28.207 10.6964,9.403 22.5811,16.593 26.1471,16.593 3.5652,0 8.9134,3.319 11.2902,7.19 6.5366,8.849 41.0033,31.526 49.3228,31.526 2.9714,0 5.9428,2.213 5.9428,4.978 0,6.636 34.4659,29.313 97.4565,65.264 25.5525,14.38 61.8013,39.822 80.8173,55.862 19.0159,15.486 35.6551,28.76 37.4381,28.76 4.1597,0 65.9619,39.269 69.5271,44.247 1.7822,2.212 12.4786,8.296 23.7703,13.826 11.2902,5.531 33.8713,19.359 49.9167,30.974 16.0437,12.168 32.089,21.57 36.2488,21.57 3.5652,0 13.0732,6.085 20.7981,13.827 7.725,7.744 17.2346,13.828 20.7998,13.828 3.5652,0 18.4213,7.743 32.6829,17.698 14.2615,9.956 33.2774,21.571 42.1916,26.549 71.9048,37.056 172.9256,128.316 199.6685,180.859 17.827,35.397 43.3793,73.007 68.3373,100.108 8.915,9.956 16.639,21.571 16.639,25.995 0,3.872 7.131,12.721 16.639,18.805 16.045,11.615 16.045,11.615 4.16,20.465 -6.537,4.425 -19.016,9.955 -27.93,11.614 -9.508,1.66 -16.639,4.979 -16.639,7.744 0,2.212 -11.29,7.742 -24.957,11.614 -14.2633,3.319 -35.0623,12.721 -46.3522,20.465 -11.291,7.743 -21.9874,14.933 -23.7704,15.486 -4.7527,3.871 0.5946,42.588 7.1304,49.777 4.7552,5.531 4.1598,7.191 -2.9706,7.191 -4.7527,0 -10.1025,-3.872 -12.4785,-8.296 -1.7838,-4.425 -7.132,-8.297 -11.8848,-8.297 -10.6971,0 -18.4221,31.527 -13.0747,55.309 1.7829,9.402 5.3489,23.783 7.1319,32.632 2.9706,12.721 1.1876,16.04 -8.3195,18.252 -13.074,3.318 -36.8435,41.481 -36.8435,59.18 0,6.084 -2.3776,12.721 -5.9428,14.38 -2.9706,1.66 -5.9428,14.381 -5.9428,27.654 0,13.275 2.9722,25.996 5.9428,27.655 3.5652,1.659 5.9428,12.72 5.9428,24.336 0,11.062 3.5652,23.783 7.725,27.654 5.9427,5.531 3.5651,9.955 -11.291,21.571 -10.1018,8.296 -32.6829,30.419 -49.9166,49.778 -17.233,19.357 -34.4659,33.738 -38.6257,32.631 -9.5079,-3.872 -83.1949,65.265 -96.8626,90.153 -6.5374,12.169 -16.0446,20.465 -26.741,22.677 -8.9141,2.212 -27.3355,13.273 -39.8148,23.782 -13.074,11.063 -26.1471,19.912 -29.1185,19.912 -3.5652,0 -9.508,5.531 -13.6678,12.721 -33.2783,55.308 -55.8594,81.303 -68.3379,81.303 -5.349,0 -17.8276,8.296 -28.5247,18.253 -11.2902,9.401 -22.5812,20.464 -26.1463,23.23 -16.64,14.933 -47.5399,51.436 -55.8594,66.369 -5.3482,9.402 -36.2497,39.269 -68.3388,66.371 -32.0891,27.654 -62.396,55.309 -67.1504,61.393 -4.7536,6.636 -15.4499,22.122 -24.9579,34.844 -8.9142,12.72 -20.7989,22.677 -27.3355,22.677 -9.508,0 -83.7895,63.604 -83.7895,71.9 0,2.213 -5.3482,8.296 -11.8848,13.827 -6.5365,5.531 -11.8847,14.933 -11.8847,20.465 0,5.531 -4.7544,11.615 -10.1026,13.273 -19.6097,5.532 -28.5239,11.616 -34.4659,22.677 -3.5659,6.637 -18.4221,24.336 -32.6836,39.823 -14.2624,15.486 -29.1185,35.397 -32.0899,44.8 -4.1598,10.508 -14.2616,20.464 -27.3355,26.548 -11.2902,4.978 -23.7696,14.933 -26.7409,21.57 -3.5652,6.637 -17.8276,22.124 -31.4951,34.845 -13.6677,12.721 -24.9585,25.442 -24.9585,28.76 0,2.765 -11.2907,15.487 -24.9584,28.76 -34.4664,31.526 -59.4249,66.924 -70.1212,96.79 -5.9426,17.147 -12.4792,25.996 -20.7987,27.101 -6.5368,1.66 -15.4505,4.979 -20.2044,8.297 -11.2908,8.85 -45.7573,60.286 -50.5111,76.326 -8.3195,25.442 -17.2333,37.61 -34.4664,44.247 -19.016,7.19 -48.7284,55.862 -61.2076,99.003 -4.1597,14.933 -10.1023,24.888 -15.4505,24.888 -13.6678,0 -42.1917,16.04 -49.3226,27.655 -3.5656,6.084 -11.2907,17.698 -16.6389,25.995 -5.9425,7.743 -10.6965,19.358 -10.6965,25.994 0,19.359 -13.0735,39.27 -25.5527,39.27 -13.0735,0 -33.8723,14.933 -33.8723,23.782 0,2.766 -7.7251,13.828 -17.8273,24.336 -12.4792,12.721 -17.8275,24.336 -17.8275,37.61 0,14.933 -3.5655,21.57 -16.0447,28.761 -23.1757,14.38 -54.6708,46.459 -58.8305,60.839 -3.5656,12.168 -41.5975,37.611 -53.4824,35.951 -8.9138,-1.66 -36.2491,27.101 -39.2204,40.376 -1.7827,11.061 -41.0032,34.843 -58.8306,35.397 -11.8849,0.552 -33.278,22.123 -36.2491,36.503 -0.5943,6.085 -10.1023,14.933 -19.6102,19.358 -10.1023,4.426 -26.147,13.828 -36.8433,21.018 -10.1023,6.637 -20.2045,12.168 -22.5816,12.168 -1.7827,0 -12.4792,6.083 -22.5814,13.274 -25.5527,17.699 -56.4535,32.079 -73.6868,33.738 -7.7252,0.553 -18.4217,4.978 -24.3642,9.402 -20.7987,17.699 -61.8018,32.08 -97.4568,35.951 -20.7986,1.66 -40.4088,5.531 -44.5685,8.297 -3.5655,2.765 -11.885,4.424 -17.8274,3.871 -5.9426,-0.554 -14.8563,0.553 -19.6103,2.212 -4.7539,1.66 -23.1756,7.744 -40.4089,12.721 -21.3929,6.084 -36.2491,14.933 -44.5686,25.442 -15.4504,19.358 -39.2203,32.079 -60.0191,32.079 -8.3195,0 -16.0447,2.212 -18.4216,4.978 -1.7828,2.765 -11.885,3.872 -23.1757,2.213 -11.2907,-1.66 -21.3929,-0.555 -23.77,3.317 -2.3769,3.319 -13.0734,6.085 -24.3642,6.085 -11.2906,0 -21.9871,2.211 -23.7699,5.531 -1.7827,2.766 -11.2907,3.871 -20.7986,1.659 -10.1022,-1.659 -21.393,-0.553 -24.9585,2.212 -4.1597,3.319 -30.3067,7.744 -57.6421,9.956 -66.5559,4.977 -80.2234,9.956 -76.0637,27.654 4.1597,20.465 7.7251,19.358 -108.7475,32.632 -8.3195,0.553 -19.6102,3.318 -24.9584,5.531 -5.3483,2.212 -33.2779,2.765 -62.3961,1.659 -28.524,-1.107 -145.5908,-3.872 -260.2808,-4.978 -114.0956,-1.659 -226.4085,-5.53 -249.5842,-9.402 -22.5815,-3.319 -46.3515,-6.084 -51.6996,-6.636 -5.9424,0 -11.885,-2.213 -13.6677,-5.531 -4.754,-7.191 -78.4408,-6.085 -92.7027,1.105 -9.508,4.426 -15.4505,3.872 -26.147,-2.765 -15.4504,-9.403 -29.7124,-7.19 -35.0607,5.531 -1.7827,4.425 -8.9137,7.743 -15.4503,7.743 -19.0161,0 -13.6679,9.402 13.0734,23.229 13.6677,7.191 24.3641,15.487 23.7699,18.252 -1.7827,6.637 -46.9456,3.872 -61.8018,-3.317 -5.3482,-2.766 -24.3642,-4.979 -42.7859,-4.979 -17.8274,0 -34.4664,-2.212 -36.2492,-5.53 -1.7826,-3.319 -28.5239,-5.532 -59.4248,-5.532 -49.9169,0 -56.4536,1.106 -62.3961,11.062 -6.5367,11.062 -26.1468,14.933 -32.0893,6.084 -3.5656,-5.53 -74.8753,-7.19 -74.8753,-1.659 0,6.084 19.6101,23.229 26.741,23.229 4.1598,0 10.6966,3.872 14.8564,8.296 4.1597,4.426 23.1757,12.169 42.1916,17.146 20.2043,5.531 549.9227,-104.947 549.9227,-100.522 0,8.849 -588.6762,102.219 -610.6634,96.687 -65.3673,-15.485 -313.63577,13.238 -318.98397,28.171 -1.7828,3.871 1.7827,9.403 7.131,12.168 5.3483,2.765 -94.78782,46.103 9.508,9.956 200.47877,-69.482 281.81657,-72.913 -74.8753,-0.553 -2.377,-3.319 -108.51798,32.587 -118.62018,34.799 -9.5079,1.66 -22.5815,0 -28.5239,-3.318 -8.9137,-5.531 84.15388,-43.096 78.80548,-38.119 -5.3482,4.979 -10.6964,4.979 -18.4217,1.107 -5.9425,-3.319 -21.3929,-4.977 -33.2779,-3.872 -17.2333,1.107 -21.9872,3.872 -21.9872,12.168 0,12.169 -11.885,17.699 -22.5813,10.509 -9.5081,-7.191 -43.9745,-8.297 -48.1343,-2.212 -4.1597,6.083 -51.1053,1.105 -61.2075,-6.085 -4.1597,-2.765 -8.3194,-2.765 -10.6965,1.106 -1.7827,2.766 -11.885,5.531 -21.393,5.531 -14.8561,0 -17.8273,2.213 -16.0446,11.616 1.1885,6.637 5.9424,13.827 10.6964,16.039 42.1917,18.252 54.6709,22.123 82.0063,25.441 21.9872,2.765 30.9009,6.085 30.9009,12.17 0,6.637 -10.6964,7.742 -76.658,3.87 -65.9616,-3.318 -79.035,-2.212 -96.2683,5.532 -19.0158,9.401 -19.0158,9.955 -7.7252,17.698 17.2333,12.72 47.54,23.782 64.1789,23.782 8.3195,0 16.6388,2.766 19.0158,6.085 1.7828,3.318 11.885,4.978 21.3931,3.871 9.508,-1.66 32.6837,1.66 50.5111,7.19 17.8274,6.084 39.2204,8.85 46.3513,7.19 7.7252,-1.659 15.4504,-0.552 17.2333,2.765 2.3769,3.319 20.2044,6.085 39.2202,6.085 19.016,0 36.8435,2.765 39.2205,6.085 2.3771,3.317 11.885,4.424 23.7699,2.765 10.6965,-2.213 24.3642,-1.106 30.3066,1.659 10.1023,5.53 64.1789,13.826 135.4887,21.017 16.639,1.105 32.0894,4.977 35.0607,7.19 2.9712,2.765 13.0734,3.318 21.9872,1.659 9.5079,-1.659 20.7986,-0.552 24.3642,2.213 4.1597,3.318 33.872,7.189 66.55567,8.848 32.0893,2.214 61.8019,6.085 65.9617,9.403 4.1596,3.319 17.8273,6.084 30.9008,5.531 12.4791,0 37.4376,2.213 55.2651,5.531 17.8274,3.319 54.0766,8.85 80.2236,12.721 26.1469,3.871 50.511,8.296 54.6707,11.062 3.5655,2.212 14.262,3.872 23.77,3.872 8.9137,0 31.4952,2.213 49.3226,6.083 17.8274,3.319 43.9744,6.084 57.642,6.638 13.0736,0.553 26.7413,2.765 29.1182,5.53 2.377,2.212 13.0735,3.872 23.7699,3.872 10.6965,0 21.3931,2.765 23.77,6.084 2.377,3.318 11.885,4.424 23.1757,2.765 11.2908,-2.213 21.3929,-1.659 23.1757,1.107 1.7827,2.765 25.5526,7.189 52.2939,9.402 27.3353,2.211 52.2938,5.532 55.265,8.297 7.131,4.977 51.6996,11.614 79.6293,11.061 10.6965,0 23.1757,2.212 26.7412,4.978 3.5655,2.211 29.1182,6.637 57.0478,8.849 27.9297,2.213 52.8882,5.53 56.4537,7.19 5.3481,3.872 98.0509,16.04 145.5907,19.912 11.2908,1.106 24.9585,3.318 29.7125,4.977 13.6676,4.978 53.4823,10.508 84.3832,11.062 14.8562,0.553 29.7124,2.765 32.0894,5.53 2.3769,2.212 15.4505,3.872 29.1182,3.872 13.6677,0 26.7411,1.66 29.1182,4.425 2.377,2.211 15.4504,4.424 29.1181,4.977 42.1917,1.66 83.789,8.297 91.5142,13.828 3.5656,2.765 16.639,3.319 27.9298,1.107 11.8849,-1.66 24.9583,-1.107 29.1181,2.212 3.5655,2.765 33.8722,7.189 66.5558,9.402 32.6836,2.212 62.3961,6.084 65.3673,8.296 6.5368,4.977 62.3961,10.509 99.8337,10.509 13.0734,0 26.1469,2.213 29.7124,4.978 4.1598,2.765 38.032,7.189 75.4696,9.402 37.4376,2.213 71.904,6.638 76.0637,9.403 4.1598,3.317 19.016,4.424 33.278,3.317 14.8561,-1.658 28.5239,-1.105 31.4952,1.107 4.754,4.424 49.3226,9.955 101.0221,12.721 13.6677,1.106 26.7411,3.319 29.1182,5.531 2.377,2.212 19.6103,3.871 38.6261,3.871 19.016,0 36.2491,2.767 38.6262,6.085 2.3769,3.871 12.4792,4.977 24.9584,2.765 11.885,-1.659 24.3642,-0.553 27.3354,1.659 6.5368,4.978 82.0063,11.061 135.4886,11.061 14.8562,0 29.1182,2.767 31.4952,6.085 1.7827,2.765 15.4505,5.531 29.7124,5.531 14.262,0 27.9297,2.765 29.7124,6.084 2.377,3.318 13.0735,4.425 26.7412,2.212 12.4792,-2.212 27.9296,-1.107 34.4664,2.213 5.9424,2.765 46.3514,7.189 89.7315,9.402 42.7859,2.213 79.6293,6.084 81.412,8.849 1.7827,2.212 16.0447,4.425 31.4952,4.425 15.4505,0 30.3065,1.659 32.6836,3.872 2.377,2.211 24.9585,3.318 50.5111,2.211 25.5528,-0.552 51.6996,1.107 57.6421,4.426 6.5367,3.318 74.281,8.296 150.9391,11.615 76.6583,3.318 160.447,7.19 185.9995,8.849 593.5947,38.774 23.1087,40.639 101.0225,23.229 19.9507,-0.754 29.7123,11.062 88.5431,11.615 40.4086,0.553 70.7155,-1.659 73.0923,-4.978 z"
       id="path3047"
       inkscape:connector-curvature="0"
       style="fill:#000000;fill-opacity:1;stroke:#000000;stroke-width:160;stroke-miterlimit:4;stroke-opacity:1;stroke-dasharray:none;filter:url(#filter6471)"
       inkscape:export-filename="/home/josalmi/Git/lokki-android/pikku1.png"
       inkscape:export-xdpi="90"
       inkscape:export-ydpi="90"
       sodipodi:nodetypes="cccccsccccccccccccccccscccccccccccccccccccccccccccsccccccccccccccccccsccccccccccscsccccccccccccccccccccsssccccccsccccccccccccccccscccscccccscccccccccccccccccccccccccccccccccccccccccccccccsscccccccccccccccccsscccccccccccccccccsccccccccsscccscccccscccscccccccccccccccccccscccccsccscccscsccccscccscscccccscscscscsscccccsccccsccccccccscccccccccccccccccccscccscccsccccccccccccsscccccccscscccsccssscscccccscccsccccccccscccscccsccccsccscsccsccccsscccccccscccccccccccccccscscscccccscccccccccscsccccccccccscccccccssccccscccscccccscsccccccccccscscccscssscscccccccsccsccsscccscccscssccscccscsccccscccsccccscscccscscscccccccscsccccccssssccccccsscccccccsccssscsccccccccscccccccccscccscccccccccccccccscccscsccssccsccssccccccsccccscccscccscccccscccccccccccscscccscccccccccccccscccccccscscccccscccscscccccscccccccs" />
    <path
       sodipodi:type="arc"
       style="fill:#000000;fill-opacity:1;fill-rule:nonzero;stroke:#060000;stroke-width:3;stroke-miterlimit:4;stroke-opacity:1;stroke-dasharray:none;filter:url(#filter6475)"
       id="path6317"
       sodipodi:cx="1660.5469"
       sodipodi:cy="793.21216"
       sodipodi:rx="10.546875"
       sodipodi:ry="10.546875"
       d="m 1671.0938,793.21216 a 10.546875,10.546875 0 1 1 -21.0938,0 10.546875,10.546875 0 1 1 21.0938,0 z"
       transform="matrix(5.7596334,0,0,-5.7596334,-1361.6463,17330.558)"
       inkscape:export-filename="/home/josalmi/Git/lokki-android/pikku1.png"
       inkscape:export-xdpi="90"
       inkscape:export-ydpi="90" />
    <path
       style="fill:#000000;fill-opacity:1;fill-rule:nonzero;stroke:#000000;stroke-width:160;stroke-miterlimit:4;stroke-opacity:1;stroke-dasharray:none;filter:url(#filter6479)"
       id="path6325"
       d="m 8811.2029,12317.987 c -43.23,-0.215 -86.173,5.235 -129.111,9.517 -60.996,4.757 -121.802,11.395 -182.636,17.804 -48.8,4.059 -96.198,16.486 -144.196,25.359 -32.333,5.96 -64.98,10.089 -97.769,12.415 -9.835,0.7 -19.692,0.757 -29.544,0.642 -7.619,-0.138 -15.232,0.13 -22.827,-0.536 -6.736,-0.702 -13.473,-1.385 -20.223,-1.952 0,0 27.163,20.087 27.163,20.087 l 0,0 c 6.731,0.572 13.45,1.254 20.176,1.875 7.714,0.478 15.438,0.429 23.166,0.494 9.702,-0.02 19.398,-0.406 29.058,-1.36 32.35,-3.164 64.55,-7.793 96.515,-13.701 47.76,-9.078 95.029,-21.147 143.586,-25.49 60.679,-6.647 121.332,-13.535 182.222,-18.058 43.797,-4.098 87.689,-9.219 131.759,-7.232 0,0 -27.339,-19.864 -27.339,-19.864 z"
       inkscape:connector-curvature="0"
       inkscape:export-filename="/home/josalmi/Git/lokki-android/pikku1.png"
       inkscape:export-xdpi="90"
       inkscape:export-ydpi="90" />
  </g>
</svg>
